<svg width="561" height="641" viewBox="0 0 561 641" fill="none" xmlns="http://www.w3.org/2000/svg">
<rect width="529.684" height="336.005" rx="18.3409" transform="matrix(0.760406 -0.649448 0.468701 0.883357 0 344.002)" fill="url(#paint0_linear_1222_19643)"/>
<path d="M255.485 467.212L249.096 464.961L247.717 466.139L248.751 456.464L250.933 454.6L249.992 463.314L249.361 462.271L257.801 465.234L255.485 467.212ZM249.152 472.621L243.128 461.267L245.029 459.643L251.053 470.997L249.152 472.621ZM259.176 464.059L256.485 449.858L259.592 447.205L269.043 455.632L267.089 457.301L258.959 449.937L259.824 449.696L258.15 451.126L258.665 450.189L261.077 462.436L259.176 464.059ZM259.905 459.052L259.517 456.671L263.48 453.287L265.059 454.65L259.905 459.052ZM278.167 447.84L271.778 445.589L270.399 446.767L271.433 437.092L273.615 435.228L272.675 443.942L272.043 442.899L280.483 445.861L278.167 447.84ZM271.834 453.248L265.81 441.894L267.711 440.271L273.735 451.625L271.834 453.248ZM281.858 444.687L279.168 430.486L282.274 427.833L291.726 436.259L289.771 437.929L281.642 430.565L282.506 430.324L280.833 431.753L281.347 430.816L283.759 443.063L281.858 444.687ZM282.587 439.68L282.199 437.299L286.162 433.914L287.741 435.277L282.587 439.68ZM279.228 429.169L279.479 425.022L281.514 423.283L280.982 427.671L279.228 429.169ZM298.745 430.264L292.72 418.91L295.318 416.692L301.366 421.381L301.607 421.175L300.446 412.312L303.083 410.06L309.108 421.414L307.22 423.026L302.078 413.336L302.336 413.162L303.594 422.756L301.652 424.414L295.106 419.336L295.344 419.088L300.485 428.778L298.745 430.264ZM317.607 414.584C316.723 415.339 315.859 415.813 315.015 416.007C314.18 416.193 313.394 416.178 312.658 415.963C311.924 415.731 311.272 415.369 310.7 414.878C310.132 414.369 309.68 413.798 309.344 413.166L309.163 412.823C308.794 412.129 308.535 411.348 308.386 410.48C308.232 409.603 308.22 408.701 308.352 407.775C308.492 406.842 308.795 405.934 309.262 405.054C309.723 404.163 310.387 403.347 311.252 402.608C312.109 401.876 312.95 401.407 313.774 401.2C314.593 400.983 315.365 400.972 316.09 401.166C316.825 401.352 317.483 401.701 318.066 402.213C318.644 402.714 319.117 403.312 319.485 404.007L319.667 404.349C320.002 404.982 320.245 405.732 320.393 406.599C320.546 407.448 320.565 408.351 320.45 409.308C320.338 410.247 320.053 411.176 319.594 412.096C319.144 413.008 318.482 413.837 317.607 414.584ZM316.517 412.531C317.017 412.104 317.409 411.619 317.691 411.077C317.983 410.526 318.171 409.951 318.255 409.352C318.343 408.735 318.334 408.132 318.229 407.543C318.128 406.937 317.937 406.369 317.656 405.84C317.354 405.27 317 404.811 316.595 404.464C316.199 404.109 315.765 403.877 315.292 403.768C314.829 403.652 314.344 403.667 313.837 403.813C313.331 403.959 312.833 404.242 312.342 404.661C311.842 405.088 311.443 405.571 311.146 406.112C310.849 406.652 310.651 407.22 310.553 407.816C310.463 408.405 310.469 409.003 310.57 409.609C310.681 410.208 310.887 410.793 311.19 411.363C311.47 411.892 311.808 412.334 312.204 412.689C312.604 413.026 313.041 413.263 313.515 413.4C313.994 413.519 314.488 413.511 315 413.375C315.512 413.239 316.018 412.958 316.517 412.531ZM325.781 407.173L319.757 395.819L322.876 393.155L332.037 399.163L332.479 398.786L332.36 399.295L327.16 389.496L328.955 387.964L334.979 399.318L331.846 401.993L322.685 395.985L322.23 396.374L322.349 395.865L327.548 405.664L325.781 407.173ZM340.658 394.467L335.5 384.746L337.402 383.122L342.559 392.843L340.658 394.467ZM332.84 387.47L331.809 385.526L339.36 379.076L340.392 381.021L332.84 387.47ZM348.241 387.991L342.217 376.637L344.078 375.047L350.102 386.401L348.241 387.991ZM349.834 386.63L348.844 384.764L353.275 380.979L354.266 382.845L349.834 386.63ZM347.268 381.793L346.277 379.926L350.361 376.439L351.351 378.305L347.268 381.793ZM344.8 377.142L343.81 375.276L348.134 371.583L349.125 373.449L344.8 377.142ZM357.582 380.013L351.558 368.659L353.459 367.035L359.483 378.389L357.582 380.013ZM363.261 375.162L357.196 363.73L359.097 362.107L365.162 373.538L363.261 375.162ZM369.233 370.062L363.609 367.678L365.738 365.859L371.455 368.164L369.233 370.062ZM362.586 370.224L361.637 368.435L364.128 366.308C364.476 366.011 364.731 365.672 364.893 365.293C365.064 364.906 365.141 364.501 365.124 364.079C365.107 363.656 364.997 363.253 364.793 362.869C364.584 362.475 364.329 362.189 364.026 362.01C363.724 361.831 363.399 361.769 363.052 361.825C362.714 361.872 362.371 362.045 362.023 362.342L359.533 364.469L358.534 362.587L360.824 360.632C361.609 359.961 362.359 359.516 363.074 359.298C363.797 359.072 364.46 359.1 365.064 359.383C365.668 359.666 366.19 360.222 366.631 361.051L366.763 361.3C367.208 362.14 367.413 362.967 367.378 363.781C367.352 364.587 367.125 365.368 366.696 366.126C366.268 366.883 365.661 367.597 364.876 368.268L362.586 370.224ZM378.855 362.274C377.971 363.028 377.107 363.502 376.263 363.696C375.428 363.882 374.642 363.868 373.905 363.653C373.172 363.42 372.52 363.058 371.948 362.567C371.38 362.058 370.927 361.487 370.592 360.855L370.41 360.513C370.042 359.818 369.783 359.037 369.634 358.17C369.48 357.292 369.468 356.39 369.6 355.464C369.74 354.531 370.043 353.624 370.51 352.743C370.971 351.852 371.634 351.037 372.5 350.297C373.357 349.566 374.198 349.096 375.022 348.89C375.84 348.673 376.613 348.661 377.338 348.855C378.073 349.041 378.731 349.39 379.314 349.902C379.891 350.404 380.364 351.002 380.733 351.696L380.915 352.039C381.25 352.671 381.492 353.421 381.641 354.288C381.794 355.138 381.812 356.041 381.697 356.998C381.586 357.937 381.301 358.866 380.842 359.785C380.392 360.697 379.729 361.527 378.855 362.274ZM377.765 360.221C378.265 359.794 378.656 359.309 378.939 358.766C379.231 358.216 379.419 357.641 379.503 357.041C379.59 356.424 379.582 355.821 379.477 355.233C379.376 354.626 379.185 354.059 378.904 353.53C378.601 352.959 378.248 352.501 377.843 352.153C377.447 351.798 377.013 351.566 376.54 351.458C376.076 351.342 375.591 351.356 375.085 351.503C374.579 351.649 374.08 351.931 373.589 352.351C373.09 352.777 372.691 353.261 372.394 353.801C372.097 354.341 371.899 354.909 371.801 355.506C371.711 356.095 371.717 356.692 371.818 357.299C371.928 357.898 372.135 358.482 372.437 359.053C372.718 359.582 373.056 360.024 373.452 360.379C373.851 360.716 374.288 360.953 374.763 361.089C375.241 361.208 375.736 361.2 376.248 361.064C376.76 360.929 377.265 360.647 377.765 360.221Z" fill="#FEFBFF"/>
<path fill-rule="evenodd" clip-rule="evenodd" d="M163.174 505.862C163.179 505.871 163.181 505.875 163.182 505.874C163.183 505.874 163.181 505.868 163.178 505.856C163.166 505.805 163.129 505.642 163.122 505.34C163.113 504.946 163.16 504.419 163.324 503.821C163.643 502.654 164.426 501.142 166.241 499.808C173.647 494.36 180.517 496.699 182.685 500.784L196.441 526.711C196.583 526.979 196.595 527.113 196.595 527.145C196.581 527.182 196.517 527.304 196.287 527.501L191.979 531.18C191.748 531.377 191.635 531.406 191.603 531.409C191.579 531.397 191.486 531.332 191.344 531.064L178.646 507.132C177.743 505.43 176.143 504.376 174.468 504.033C172.788 503.688 170.869 504.025 169.292 505.371L164.903 509.12L163.174 505.862ZM196.597 527.141C196.598 527.136 196.599 527.134 196.599 527.134C196.599 527.134 196.599 527.137 196.597 527.141ZM191.593 531.409C191.593 531.409 191.595 531.409 191.599 531.41C191.595 531.41 191.593 531.41 191.593 531.409ZM170.448 507.548L166.058 511.297L181.161 539.761C181.523 540.444 181.825 541.302 181.618 542.279C181.416 543.235 180.814 543.879 180.288 544.329L175.901 548.075C175.411 548.494 174.751 548.9 174.009 548.824C173.228 548.743 172.651 548.162 172.237 547.383L159.395 523.179C158.679 521.829 158.49 519.691 158.762 517.702C159.038 515.687 159.841 513.444 161.459 512.062L163.029 510.721L161.298 507.458C161.044 506.979 160.937 506.295 160.921 505.637C160.905 504.928 160.99 504.073 161.242 503.152C161.754 501.28 162.936 499.203 165.226 497.519C173.375 491.525 181.633 493.669 184.559 499.184L198.315 525.11C198.656 525.753 198.909 526.571 198.748 527.499C198.584 528.443 198.055 529.154 197.442 529.678L193.134 533.357C192.521 533.881 191.802 534.236 191.051 534.073C190.313 533.913 189.811 533.308 189.47 532.665L176.771 508.733C176.235 507.722 175.185 506.956 173.935 506.699C172.691 506.444 171.41 506.726 170.448 507.548ZM162.614 514.239L164.184 512.898L179.287 541.362C179.403 541.582 179.453 541.725 179.473 541.806C179.422 541.877 179.32 541.991 179.132 542.152L174.746 545.898C174.508 546.101 174.396 546.127 174.373 546.13C174.34 546.112 174.248 546.039 174.111 545.782L161.269 521.578C160.927 520.933 160.715 519.528 160.933 517.936C161.147 516.371 161.726 514.997 162.614 514.239ZM174.386 546.135C174.386 546.136 174.382 546.135 174.375 546.132C174.383 546.133 174.386 546.135 174.386 546.135ZM222.222 513.123C222.218 513.115 222.215 513.111 222.215 513.111C222.214 513.112 222.215 513.118 222.218 513.13C222.23 513.181 222.268 513.344 222.275 513.646C222.284 514.04 222.237 514.567 222.073 515.165C221.754 516.331 220.97 517.843 219.156 519.178C211.749 524.626 204.88 522.287 202.712 518.202L188.955 492.275C188.813 492.007 188.801 491.873 188.801 491.84C188.816 491.804 188.88 491.682 189.11 491.485L193.418 487.806C193.648 487.609 193.762 487.58 193.794 487.576C193.817 487.589 193.911 487.654 194.053 487.921L206.751 511.854C207.654 513.555 209.253 514.609 210.928 514.953C212.609 515.298 214.528 514.961 216.104 513.615L220.494 509.866L222.222 513.123ZM188.799 491.845C188.798 491.849 188.798 491.852 188.797 491.852C188.797 491.852 188.798 491.849 188.799 491.845ZM193.803 487.576C193.803 487.577 193.801 487.577 193.797 487.576C193.801 487.576 193.803 487.576 193.803 487.576ZM214.949 511.437L219.338 507.689L204.236 479.224C203.873 478.542 203.572 477.684 203.778 476.707C203.98 475.75 204.582 475.107 205.109 474.657L209.495 470.911C209.985 470.492 210.646 470.085 211.387 470.162C212.168 470.242 212.746 470.823 213.159 471.603L226.002 495.807C226.718 497.156 226.907 499.295 226.635 501.283C226.359 503.299 225.556 505.542 223.938 506.924L222.368 508.265L224.099 511.528C224.353 512.007 224.46 512.691 224.475 513.349C224.492 514.058 224.407 514.913 224.155 515.833C223.642 517.706 222.46 519.783 220.171 521.467C212.021 527.461 203.764 525.317 200.838 519.802L187.081 493.875C186.74 493.233 186.487 492.415 186.648 491.486C186.812 490.543 187.342 489.832 187.955 489.308L192.263 485.629C192.876 485.105 193.595 484.75 194.345 484.913C195.084 485.073 195.586 485.678 195.927 486.321L208.625 510.253C209.161 511.264 210.211 512.03 211.461 512.287C212.706 512.542 213.987 512.259 214.949 511.437ZM222.783 504.747L221.213 506.088L206.11 477.624C205.993 477.404 205.943 477.261 205.923 477.18C205.975 477.108 206.076 476.995 206.264 476.834L210.651 473.088C210.889 472.884 211 472.859 211.024 472.856C211.057 472.874 211.149 472.947 211.285 473.203L224.128 497.408C224.47 498.052 224.682 499.458 224.464 501.05C224.25 502.614 223.671 503.988 222.783 504.747ZM211.011 472.851C211.011 472.85 211.014 472.851 211.021 472.854C211.014 472.853 211.01 472.851 211.011 472.851Z" fill="#FEFBFF"/>
<circle cx="33.5641" cy="33.5641" r="33.5641" transform="matrix(0.760406 -0.649448 0.468701 0.883357 313.101 114.961)" fill="#E71924"/>
<circle cx="33.5641" cy="33.5641" r="33.5641" transform="matrix(0.760406 -0.649448 0.468701 0.883357 344.207 88.3947)" fill="#F99F19"/>
<path fill-rule="evenodd" clip-rule="evenodd" d="M382.32 132.922C385.507 122.323 384.896 110.472 379.816 100.897C374.735 91.3224 366.311 86.1445 357.372 85.902C354.185 96.5008 354.796 108.352 359.876 117.927C364.957 127.502 373.381 132.68 382.32 132.922Z" fill="#F26520"/>
<rect x="0.966889" y="0.184007" width="71.8482" height="50.8706" rx="4.45774" transform="matrix(0.760406 -0.649448 0.468701 0.883357 97.7506 407.374)" fill="url(#paint1_linear_1222_19643)" stroke="#211F21" stroke-width="1.57332"/>
<path d="M106.515 421.331L122.865 407.367" stroke="#211F21" stroke-width="1.46727" stroke-linecap="round"/>
<path d="M114.135 435.693L130.126 422.034" stroke="#211F21" stroke-width="1.46727" stroke-linecap="round"/>
<path d="M152.418 402.995L168.369 389.372" stroke="#211F21" stroke-width="1.46727" stroke-linecap="round"/>
<path d="M144.804 389.302L160.995 375.474" stroke="#211F21" stroke-width="1.46727" stroke-linecap="round"/>
<circle cx="1.57332" cy="1.57332" r="1.57332" transform="matrix(0.760406 -0.649448 0.468701 0.883357 127.52 389.927)" fill="#211F21"/>
<path d="M199.669 367.301C198.06 356.213 195.826 351.085 187.917 345.151C187.077 344.522 187.015 343.453 187.332 342.958C187.649 342.463 188.348 342.09 189.22 342.692C198.07 348.803 200.634 354.278 202.201 366.612C202.294 367.879 201.609 368.633 200.974 368.669C200.232 368.711 199.805 368.238 199.669 367.301Z" fill="#FEFBFF"/>
<path d="M184.098 349.423C183.822 349.995 184.033 351.091 185.005 351.678C191.128 355.871 192.986 359.673 193.977 368.587C194.055 369.504 194.626 370.104 195.236 369.868C195.957 369.588 196.218 368.65 196.14 367.749C195.306 358.089 193.208 353.921 186.185 348.987C185.536 348.531 184.512 348.564 184.098 349.423Z" fill="#FEFBFF"/>
<path d="M181.708 355.84C181.233 356.582 181.535 357.442 182.292 358.033C186.232 361.11 187.801 363.381 188.315 369.384C188.366 370.462 188.683 371.382 189.497 371.066C190.312 370.751 190.58 369.922 190.524 369.179C190 361.74 187.858 359.148 183.15 355.281C182.748 354.951 182.183 355.097 181.708 355.84Z" fill="#FEFBFF"/>
<path d="M178.504 361.269C178.152 362.243 178.439 363.018 179.534 363.756C181.838 365.335 182.543 366.726 182.852 370.01C182.965 371.478 183.483 372.837 184.403 372.388C185.324 371.938 185.503 371.306 185.261 369.635C184.475 365.365 183.554 363.357 180.591 360.833C179.855 360.151 179.056 360.125 178.504 361.269Z" fill="#FEFBFF"/>
<path d="M139.701 385.582C134.959 380.835 130.522 380.295 125.936 384.211C120.353 388.98 121.395 395.266 122.742 407.135C128.07 411.203 129.788 414.378 130.485 421.728C140.379 430.588 144.973 431.995 149.486 428.051C155.468 422.943 154.046 415.599 152.219 403.166C147.612 399.212 145.839 396.374 144.564 389.575" stroke="#211F21" stroke-width="1.46727" stroke-linecap="round"/>
<defs>
<linearGradient id="paint0_linear_1222_19643" x1="447.583" y1="45.3606" x2="259.777" y2="386.622" gradientUnits="userSpaceOnUse">
<stop stop-color="#A950C4"/>
<stop offset="1" stop-color="#82269E"/>
</linearGradient>
<linearGradient id="paint1_linear_1222_19643" x1="67.2386" y1="7.24643" x2="5.6133" y2="48.3299" gradientUnits="userSpaceOnUse">
<stop stop-color="#F4F4F4"/>
<stop offset="1" stop-color="#D6D6D6"/>
</linearGradient>
</defs>
</svg>
