<svg width="84" height="27" viewBox="0 0 84 27" fill="none" xmlns="http://www.w3.org/2000/svg">
<g id="Group 535">
<g id="Group 533">
<text id="Download via" fill="#232224" xml:space="preserve" style="white-space: pre" font-family="Source Sans Pro" font-size="10" letter-spacing="0em"><tspan x="27" y="10.055">Download via</tspan></text>
<text id="App Store" fill="#232224" xml:space="preserve" style="white-space: pre" font-family="Source Sans Pro" font-size="13" font-weight="bold" letter-spacing="0em"><tspan x="27" y="23.6215">App Store</tspan></text>
<g id="Vector 212">
<path d="M0.0096566 14.8722C-0.161088 11.858 1.94866 8.78129 5.05107 8.78129C5.76548 8.78129 6.08946 8.95047 6.86758 9.19706C7.28419 9.32908 7.99015 9.69597 8.39836 9.69597C8.80657 9.69597 9.29643 9.42573 9.9572 9.1789C10.8946 8.82875 11.449 8.7913 11.9906 8.78129C13.8072 8.78129 15.1408 9.55476 15.9911 10.7562C14.5876 11.6864 13.848 12.8142 13.8071 14.6436C13.8071 16.3066 14.8481 17.9281 16.5217 18.6557C16.1135 20.4019 13.9092 23.9983 12.0927 23.9983C11.4689 23.9619 11.0856 23.8628 10.3578 23.5825C9.81548 23.3404 9.09233 23.1667 8.62288 23.1667C8.13303 23.146 7.58402 23.3077 6.89819 23.5825C6.31651 23.8156 5.96992 23.9479 5.17351 23.9983C3.66314 24.0937 0.312286 20.2148 0.0096566 14.8722Z" fill="url(#paint0_linear_8486_24083)"/>
<path d="M9.37807 5.53833C8.53554 6.46245 8.21467 7.67952 8.2759 8.78129C9.66381 8.67735 10.6231 8.09528 11.5008 7.01429C12.3784 5.93331 12.3849 5.1478 12.3784 4C11.3569 4.1693 10.1741 4.66522 9.37807 5.53833Z" fill="url(#paint1_linear_8486_24083)"/>
</g>
</g>
</g>
<defs>
<linearGradient id="paint0_linear_8486_24083" x1="13.9609" y1="6.7" x2="0.744272" y2="19.2849" gradientUnits="userSpaceOnUse">
<stop stop-color="#A950C4"/>
<stop offset="1" stop-color="#82269E"/>
</linearGradient>
<linearGradient id="paint1_linear_8486_24083" x1="13.9609" y1="6.7" x2="0.744272" y2="19.2849" gradientUnits="userSpaceOnUse">
<stop stop-color="#A950C4"/>
<stop offset="1" stop-color="#82269E"/>
</linearGradient>
</defs>
</svg>
